<?xml version="1.0" encoding="utf-8"?>
<svg width="1766" height="172" viewBox="0 0 1766 172" fill="none" xmlns="http://www.w3.org/2000/svg">
  <defs>
    <filter color-interpolation-filters="sRGB" x="-1648" y="-54" width="1650" height="56" id="filter_1">
      <feFlood flood-opacity="0" result="BackgroundImageFix_1" />
      <feColorMatrix type="matrix" values="0 0 0 0 0 0 0 0 0 0 0 0 0 0 0 0 0 0 1 0" in="SourceAlpha" />
      <feMorphology radius="4" operator="dilate" in="SourceAlpha" />
      <feOffset dx="-25" dy="25" />
      <feGaussianBlur stdDeviation="18" />
      <feColorMatrix type="matrix" values="0 0 0 0 0.878 0 0 0 0 0.839 0 0 0 0 0.82 0 0 0 1 0" />
      <feBlend mode="normal" in2="BackgroundImageFix_1" result="Shadow_2" />
      <feBlend mode="normal" in="SourceGraphic" in2="Shadow_2" result="Shape_3" />
      <feColorMatrix type="matrix" values="0 0 0 0 0 0 0 0 0 0 0 0 0 0 0 0 0 0 1 0" in="SourceAlpha" result="HardAlpha_4" />
      <feMorphology radius="-4" operator="erode" in="SourceAlpha" />
      <feOffset dx="0" dy="13" />
      <feGaussianBlur stdDeviation="3.5" />
      <feComposite operator="arithmetic" k2="-1" k3="1" in2="HardAlpha_4" />
      <feColorMatrix type="matrix" values="0 0 0 0 1 0 0 0 0 0.996 0 0 0 0 0.996 0 0 0 1 0" />
      <feBlend mode="normal" in2="Shape_3" result="InnerShadow_5" />
      <feColorMatrix type="matrix" values="0 0 0 0 0 0 0 0 0 0 0 0 0 0 0 0 0 0 1 0" in="SourceAlpha" result="HardAlpha_6" />
      <feOffset dx="0" dy="-8" />
      <feGaussianBlur stdDeviation="4" />
      <feComposite operator="arithmetic" k2="-1" k3="1" in2="HardAlpha_6" />
      <feColorMatrix type="matrix" values="0 0 0 0 0.769 0 0 0 0 0.741 0 0 0 0 0.737 0 0 0 1 0" />
      <feBlend mode="normal" in2="InnerShadow_5" result="InnerShadow_7" />
    </filter>
  </defs>
  <path id="Rectangle" d="M16.9062 0L1633.09 0Q1633.51 0 1633.92 0.0203643Q1634.34 0.0407286 1634.75 0.0814082Q1635.16 0.122088 1635.57 0.182985Q1635.98 0.243881 1636.39 0.324849Q1636.8 0.405816 1637.2 0.506659Q1637.6 0.607502 1638 0.727977Q1638.4 0.848453 1638.79 0.98827Q1639.18 1.12809 1639.56 1.28691Q1639.95 1.44573 1640.32 1.62318Q1640.7 1.80063 1641.06 1.99627Q1641.43 2.19191 1641.79 2.40528Q1642.14 2.61864 1642.49 2.84922Q1642.83 3.07979 1643.16 3.32702Q1643.5 3.57425 1643.82 3.83754Q1644.14 4.10083 1644.45 4.37954Q1644.75 4.65826 1645.05 4.95173Q1645.34 5.24519 1645.62 5.55271Q1645.9 5.86022 1646.16 6.18104Q1646.43 6.50186 1646.67 6.83521Q1646.92 7.16856 1647.15 7.51364Q1647.38 7.85872 1647.59 8.2147Q1647.81 8.57068 1648 8.9367Q1648.2 9.30272 1648.38 9.67789Q1648.55 10.0531 1648.71 10.4365Q1648.87 10.8199 1649.01 11.2107Q1649.15 11.6015 1649.27 11.9986Q1649.39 12.3958 1649.49 12.7984Q1649.59 13.201 1649.68 13.608Q1649.76 14.0151 1649.82 14.4256Q1649.88 14.8361 1649.92 15.2491Q1649.96 15.6622 1649.98 16.0767Q1650 16.4912 1650 16.9063L1650 39.0938Q1650 39.5088 1649.98 39.9233Q1649.96 40.3378 1649.92 40.7509Q1649.88 41.1639 1649.82 41.5744Q1649.76 41.9849 1649.68 42.392Q1649.59 42.799 1649.49 43.2016Q1649.39 43.6042 1649.27 44.0014Q1649.15 44.3985 1649.01 44.7893Q1648.87 45.1801 1648.71 45.5635Q1648.55 45.9469 1648.38 46.3221Q1648.2 46.6973 1648 47.0633Q1647.81 47.4293 1647.59 47.7853Q1647.38 48.1413 1647.15 48.4864Q1646.92 48.8314 1646.67 49.1648Q1646.43 49.4981 1646.16 49.819Q1645.9 50.1398 1645.62 50.4473Q1645.34 50.7548 1645.05 51.0483Q1644.75 51.3417 1644.45 51.6205Q1644.14 51.8992 1643.82 52.1625Q1643.5 52.4257 1643.16 52.673Q1642.83 52.9202 1642.49 53.1508Q1642.14 53.3814 1641.79 53.5947Q1641.43 53.8081 1641.06 54.0037Q1640.7 54.1994 1640.32 54.3768Q1639.95 54.5543 1639.56 54.7131Q1639.18 54.8719 1638.79 55.0117Q1638.4 55.1515 1638 55.272Q1637.6 55.3925 1637.2 55.4933Q1636.8 55.5942 1636.39 55.6751Q1635.99 55.7561 1635.57 55.817Q1635.16 55.8779 1634.75 55.9186Q1634.34 55.9593 1633.92 55.9796Q1633.51 56 1633.09 56L16.9063 56Q16.4912 56 16.0767 55.9796Q15.6622 55.9593 15.2491 55.9186Q14.8361 55.8779 14.4256 55.817Q14.0151 55.7561 13.608 55.6751Q13.201 55.5942 12.7984 55.4933Q12.3958 55.3925 11.9986 55.272Q11.6015 55.1515 11.2107 55.0117Q10.8199 54.8719 10.4365 54.7131Q10.0531 54.5543 9.67789 54.3768Q9.30272 54.1994 8.9367 54.0037Q8.57068 53.8081 8.2147 53.5947Q7.85872 53.3814 7.51364 53.1508Q7.16856 52.9202 6.83521 52.673Q6.50186 52.4257 6.18104 52.1625Q5.86022 51.8992 5.55271 51.6205Q5.24519 51.3417 4.95173 51.0483Q4.65826 50.7548 4.37954 50.4473Q4.10083 50.1398 3.83754 49.819Q3.57425 49.4981 3.32702 49.1648Q3.07979 48.8314 2.84922 48.4864Q2.61864 48.1413 2.40528 47.7853Q2.19191 47.4293 1.99627 47.0633Q1.80063 46.6973 1.62318 46.3221Q1.44573 45.9469 1.28691 45.5635Q1.12809 45.1801 0.98827 44.7893Q0.848453 44.3985 0.727977 44.0014Q0.607502 43.6042 0.506659 43.2016Q0.405816 42.799 0.324849 42.392Q0.243881 41.9849 0.182985 41.5744Q0.122088 41.1639 0.0814082 40.7509Q0.0407286 40.3378 0.0203643 39.9233Q0 39.5088 0 39.0938L0 16.9063Q0 16.4912 0.0203643 16.0767Q0.0407286 15.6622 0.0814082 15.2491Q0.122088 14.8361 0.182985 14.4256Q0.243881 14.0151 0.324849 13.608Q0.405816 13.201 0.506659 12.7984Q0.607502 12.3958 0.727977 11.9986Q0.848453 11.6015 0.98827 11.2107Q1.12809 10.8199 1.28691 10.4365Q1.44573 10.0531 1.62318 9.67789Q1.80063 9.30272 1.99627 8.9367Q2.19191 8.57068 2.40528 8.2147Q2.61864 7.85872 2.84922 7.51364Q3.07979 7.16856 3.32702 6.83521Q3.57425 6.50186 3.83754 6.18104Q4.10083 5.86022 4.37954 5.55271Q4.65826 5.24519 4.95173 4.95173Q5.24519 4.65826 5.55271 4.37954Q5.86022 4.10083 6.18104 3.83754Q6.50186 3.57425 6.83521 3.32702Q7.16856 3.07979 7.51364 2.84922Q7.85872 2.61864 8.2147 2.40528Q8.57068 2.19191 8.9367 1.99627Q9.30272 1.80063 9.67789 1.62318Q10.0531 1.44573 10.4365 1.28691Q10.8199 1.12809 11.2107 0.98827Q11.6015 0.848453 11.9986 0.727977Q12.3958 0.607502 12.7984 0.506659Q13.201 0.405816 13.608 0.324849Q14.0151 0.243881 14.4256 0.182985Q14.8361 0.122088 15.2491 0.0814082Q15.6622 0.0407286 16.0767 0.0203643Q16.4912 0 16.9063 0L16.9062 0Z" fill="#F4E9E6" fill-rule="evenodd" filter="url(#filter_1)" transform="translate(83 33)" />
</svg>