<svg xmlns="http://www.w3.org/2000/svg" version="1.1" xmlns:xlink="http://www.w3.org/1999/xlink" width="512" height="512" x="0" y="0" viewBox="0 0 512 512" style="enable-background:new 0 0 512 512" xml:space="preserve" class=""><g><g fill-rule="evenodd"><path fill="#286217" d="M256 0C114.841 0 0 114.841 0 256s114.839 256 256 256 256-114.838 256-256S397.16 0 256 0z" opacity="1" data-original="#ff5a54" class=""></path><path fill="#286217" d="M437.056 436.8q2.022-2.015 4-4.076 7.695-8.055 14.675-16.763l.037-.045.083-.1q.467-.585.931-1.171l.427-.541.04-.05.347-.443.043-.055a257.4 257.4 0 0 0 16.045-22.957l.622-1.008q2.257-3.675 4.393-7.43l.5-.883.19-.338q.987-1.755 1.947-3.529 5.865-10.839 10.695-22.281a254.009 254.009 0 0 0 9.884-27.907l-161.5-183.8 3.585 4.136 3.39 4.312 3.183 4.474 2.971 4.629 2.751 4.777 2.522 4.919 2.288 5.052 2.045 5.179 1.8 5.3 1.54 5.41 1.276 5.514 1 5.613.727 5.7.441 5.786.148 5.862-.1 3.292-.281 3.344-.462 3.391-.638 3.438-.8 3.483-.966 3.525-1.122 3.566-1.271 3.6-.913 2.35-69.262-74.86-1.714-1.8-1.8-1.713-1.878-1.627-1.954-1.536-2.028-1.443-2.1-1.347-2.166-1.246-2.23-1.143-2.29-1.037-2.348-.927-2.4-.815-2.452-.7-2.5-.578-2.544-.455-2.585-.33-2.623-.2-2.655-.057-2.657.068-2.623.2-2.585.329-2.545.456-2.5.578-2.452.7-2.4.814-2.348.927-2.29 1.037-2.23 1.143-2.166 1.247-2.1 1.346-2.028 1.443-1.955 1.537-1.877 1.626-1.8 1.714-1.713 1.8-1.627 1.877-1.537 1.954-1.444 2.028-1.347 2.1-1.247 2.166-1.144 2.229-1.037 2.29-.928 2.348-.814 2.4-.7 2.452-.578 2.5-.456 2.544-.33 2.586-.2 2.623-.068 2.657.068 2.657.2 2.624.33 2.585.456 2.544.578 2.5.7 2.453.814 2.4.928 2.348 1.036 2.29 1.144 2.231 1.247 2.165 1.346 2.1 1.444 2.028 1.537 1.955 1.627 1.878 1.714 1.8 90.242 88.663-1.37 1.825-2.988 3.97-1.533 2.036-1.526 2.029-1.52 2.022-1.512 2.015-1.5 2.007-1.5 2-1.487 1.992-1.476 1.984-1.465 1.977-1.454 1.969-1.442 1.961-1.43 1.953-1.416 1.945-1.4 1.936-1.388 1.929-1.372 1.921-1.356 1.912-1.339 1.9-1.322 1.9-1.3 1.887-1.286 1.878-1.266 1.869-1.246 1.86-1.226 1.852-1.2 1.842-1.182 1.834-1.16 1.824-1.136 1.815-1.113 1.806-1.088 1.8-1.063 1.787-1.037 1.778-.268.43-.293.409-.317.386-.34.361-.362.338-.382.312-.4.286-.417.259-.433.231-.449.2-.461.175-.473.144-.484.114-.492.082-.5.05L256 406l-.507-.017-.5-.05-.492-.082-.483-.114-.473-.144-.461-.174-.448-.2-.434-.232-.417-.259-.4-.286-.382-.312 99.762 89.685c.627-.25 1.249-.511 1.873-.766q3.453-1.413 6.857-2.921a256.528 256.528 0 0 0 60.258-37.5q9.01-7.528 17.303-15.828z" opacity="1" data-original="#db3a3c" class=""></path><path fill="#ffffff" d="M256 246.506a36.527 36.527 0 1 1 36.531-36.531A36.572 36.572 0 0 1 256 246.506zm0-88.245a51.718 51.718 0 1 0 51.72 51.714A51.777 51.777 0 0 0 256 158.261zM256 106a114.22 114.22 0 0 0-114.085 114.087c0 34.848 32.915 78.6 64.756 120.91 16.371 21.75 31.832 42.294 42.75 61.206a7.6 7.6 0 0 0 13.158 0c10.921-18.912 26.373-39.456 42.75-61.215 31.843-42.306 64.756-86.051 64.756-120.9A114.215 114.215 0 0 0 256 106z" opacity="1" data-original="#ffffff" class=""></path></g></g></svg>